<svg xmlns="http://www.w3.org/2000/svg" xmlns:xlink="http://www.w3.org/1999/xlink" width="50" zoomAndPan="magnify" viewBox="0 0 37.5 30.000001" height="40" preserveAspectRatio="xMidYMid meet" version="1.0"><defs><clipPath id="b3f70c9f6a"><path d="M 0.363281 2 L 36.652344 2 L 36.652344 27 L 0.363281 27 Z M 0.363281 2 " clip-rule="nonzero"/></clipPath><clipPath id="f910061212"><path d="M 0.363281 1.707031 L 36.652344 1.707031 L 36.652344 27.109375 L 0.363281 27.109375 Z M 0.363281 1.707031 " clip-rule="nonzero"/></clipPath><clipPath id="f91a28c763"><path d="M 3.265625 5.660156 L 32.445312 5.660156 L 32.445312 21.617188 L 3.265625 21.617188 Z M 3.265625 5.660156 " clip-rule="nonzero"/></clipPath><clipPath id="1cf8120761"><path d="M 9.445312 5.214844 L 27.589844 5.214844 L 27.589844 24 L 9.445312 24 Z M 9.445312 5.214844 " clip-rule="nonzero"/></clipPath></defs><g clip-path="url(#b3f70c9f6a)"><path fill="#ffffff" d="M 4.636719 2.238281 L 32.378906 2.238281 C 32.875 2.238281 33.351562 2.332031 33.808594 2.519531 C 34.265625 2.707031 34.667969 2.976562 35.019531 3.320312 C 35.371094 3.667969 35.640625 4.070312 35.828125 4.523438 C 36.019531 4.976562 36.113281 5.449219 36.113281 5.941406 L 36.113281 22.878906 C 36.113281 23.367188 36.019531 23.839844 35.828125 24.292969 C 35.640625 24.75 35.371094 25.148438 35.019531 25.496094 C 34.667969 25.84375 34.265625 26.113281 33.808594 26.300781 C 33.351562 26.488281 32.875 26.582031 32.378906 26.582031 L 4.636719 26.582031 C 4.140625 26.582031 3.664062 26.488281 3.207031 26.300781 C 2.75 26.113281 2.347656 25.84375 1.996094 25.496094 C 1.648438 25.148438 1.375 24.75 1.1875 24.292969 C 0.996094 23.839844 0.902344 23.367188 0.902344 22.878906 L 0.902344 5.941406 C 0.902344 5.449219 0.996094 4.976562 1.1875 4.523438 C 1.375 4.070312 1.648438 3.667969 1.996094 3.320312 C 2.347656 2.976562 2.75 2.707031 3.207031 2.519531 C 3.664062 2.332031 4.140625 2.238281 4.636719 2.238281 Z M 4.636719 2.238281 " fill-opacity="1" fill-rule="nonzero"/></g><g clip-path="url(#f910061212)"><path stroke-linecap="butt" transform="matrix(1.066973, 0, 0, 1.058468, 0.369518, 1.707782)" fill="none" stroke-linejoin="miter" d="M 3.999351 0.501196 L 30.000176 0.501196 C 30.46513 0.501196 30.911779 0.589767 31.340123 0.76691 C 31.768466 0.944053 32.145555 1.198696 32.47505 1.523458 C 32.804545 1.85191 33.057158 2.232029 33.232889 2.660124 C 33.412281 3.088219 33.500146 3.534767 33.500146 3.999767 L 33.500146 20.001671 C 33.500146 20.46298 33.412281 20.909528 33.232889 21.337623 C 33.057158 21.769409 32.804545 22.145837 32.47505 22.47429 C 32.145555 22.802742 31.768466 23.057385 31.340123 23.234528 C 30.911779 23.41167 30.46513 23.500242 30.000176 23.500242 L 3.999351 23.500242 C 3.534397 23.500242 3.087748 23.41167 2.659404 23.234528 C 2.23106 23.057385 1.853972 22.802742 1.524476 22.47429 C 1.198642 22.145837 0.942368 21.769409 0.766638 21.337623 C 0.587246 20.909528 0.499381 20.46298 0.499381 20.001671 L 0.499381 3.999767 C 0.499381 3.534767 0.587246 3.088219 0.766638 2.660124 C 0.942368 2.232029 1.198642 1.85191 1.524476 1.523458 C 1.853972 1.198696 2.23106 0.944053 2.659404 0.76691 C 3.087748 0.589767 3.534397 0.501196 3.999351 0.501196 Z M 3.999351 0.501196 " stroke="#d9d9d9" stroke-width="1" stroke-opacity="1" stroke-miterlimit="4"/></g><path fill="#ed0006" d="M 18.699219 19.519531 C 17.4375 20.578125 15.796875 21.214844 14.007812 21.214844 C 10.011719 21.214844 6.769531 18.039062 6.769531 14.125 C 6.769531 10.207031 10.011719 7.03125 14.007812 7.03125 C 15.796875 7.03125 17.4375 7.667969 18.699219 8.726562 C 19.960938 7.667969 21.601562 7.03125 23.390625 7.03125 C 27.386719 7.03125 30.625 10.207031 30.625 14.125 C 30.625 18.039062 27.386719 21.214844 23.390625 21.214844 C 21.601562 21.214844 19.960938 20.578125 18.699219 19.519531 Z M 18.699219 19.519531 " fill-opacity="1" fill-rule="evenodd"/><path fill="#f9a000" d="M 18.699219 19.519531 C 20.253906 18.21875 21.242188 16.285156 21.242188 14.125 C 21.242188 11.960938 20.253906 10.027344 18.699219 8.726562 C 19.960938 7.667969 21.601562 7.03125 23.390625 7.03125 C 27.386719 7.03125 30.625 10.207031 30.625 14.125 C 30.625 18.039062 27.386719 21.214844 23.390625 21.214844 C 21.601562 21.214844 19.960938 20.578125 18.699219 19.519531 Z M 18.699219 19.519531 " fill-opacity="1" fill-rule="evenodd"/><path fill="#ff5e00" d="M 18.699219 19.519531 C 20.253906 18.21875 21.242188 16.285156 21.242188 14.125 C 21.242188 11.960938 20.253906 10.027344 18.699219 8.726562 C 17.144531 10.027344 16.15625 11.960938 16.15625 14.125 C 16.15625 16.285156 17.144531 18.21875 18.699219 19.519531 Z M 18.699219 19.519531 " fill-opacity="1" fill-rule="evenodd"/><g clip-path="url(#f91a28c763)"><path fill="#ffffff" d="M 3.265625 5.660156 L 32.4375 5.660156 L 32.4375 21.617188 L 3.265625 21.617188 Z M 3.265625 5.660156 " fill-opacity="1" fill-rule="nonzero"/></g><g clip-path="url(#1cf8120761)"><path fill="#e60000" d="M 15.183594 6.140625 C 17.457031 5.222656 20.105469 5.285156 22.316406 6.351562 C 21.6875 6.253906 21.046875 6.328125 20.421875 6.433594 C 18.726562 6.757812 17.117188 7.566406 15.859375 8.765625 C 14.652344 9.96875 13.804688 11.566406 13.566406 13.273438 C 13.410156 14.480469 13.554688 15.75 14.089844 16.851562 C 14.640625 18.003906 15.613281 18.953125 16.785156 19.441406 C 17.914062 19.925781 19.222656 19.917969 20.363281 19.488281 C 22.078125 18.851562 23.308594 17.128906 23.453125 15.289062 C 23.539062 14.082031 23.25 12.800781 22.453125 11.875 C 21.6875 10.972656 20.570312 10.472656 19.457031 10.1875 C 19.394531 9.074219 19.914062 7.96875 20.738281 7.242188 C 21.195312 6.828125 21.761719 6.558594 22.347656 6.390625 L 22.390625 6.375 C 24.070312 7.191406 25.496094 8.535156 26.40625 10.1875 C 27.183594 11.59375 27.589844 13.214844 27.550781 14.828125 C 27.542969 16.917969 26.773438 18.984375 25.453125 20.578125 C 24.207031 22.101562 22.460938 23.195312 20.558594 23.632812 C 18.648438 24.082031 16.597656 23.886719 14.8125 23.066406 C 13.066406 22.277344 11.585938 20.902344 10.644531 19.210938 C 9.859375 17.804688 9.445312 16.1875 9.480469 14.570312 C 9.484375 12.554688 10.191406 10.558594 11.421875 8.984375 C 12.40625 7.726562 13.710938 6.726562 15.183594 6.140625 Z M 15.183594 6.140625 " fill-opacity="1" fill-rule="nonzero"/></g><path fill="#ffffff" d="M 20.421875 6.433594 C 21.046875 6.328125 21.6875 6.253906 22.316406 6.351562 L 22.410156 6.367188 L 22.347656 6.390625 C 21.761719 6.558594 21.195312 6.828125 20.738281 7.242188 C 19.914062 7.96875 19.394531 9.074219 19.457031 10.1875 C 20.570312 10.472656 21.6875 10.972656 22.453125 11.875 C 23.25 12.800781 23.539062 14.082031 23.453125 15.289062 C 23.308594 17.128906 22.078125 18.851562 20.363281 19.488281 C 19.222656 19.917969 17.914062 19.925781 16.785156 19.441406 C 15.613281 18.953125 14.640625 18.003906 14.089844 16.851562 C 13.554688 15.75 13.410156 14.480469 13.566406 13.273438 C 13.804688 11.566406 14.652344 9.96875 15.859375 8.765625 C 17.117188 7.566406 18.726562 6.757812 20.421875 6.433594 Z M 20.421875 6.433594 " fill-opacity="1" fill-rule="nonzero"/></svg>
